<svg width="23" height="28" viewBox="0 0 23 28" fill="none" xmlns="http://www.w3.org/2000/svg">
<path d="M3.70009 14.1367C4.00658 14.5276 4.31308 14.9184 4.61958 15.3065C4.68706 15.3908 4.69552 15.4724 4.64491 15.568C4.53243 15.7817 4.42276 15.9954 4.31591 16.2119C4.03472 16.7827 3.76759 17.3591 3.47516 17.9243C3.24458 18.3714 3.05617 18.8354 2.99993 19.3274C2.9212 20.0164 2.9662 20.7081 3.22489 21.3633C3.65792 22.4571 4.3637 23.3259 5.39566 23.9108C5.60936 24.0317 5.60373 24.0289 5.74151 23.818C6.37981 22.8451 7.01813 21.8722 7.66205 20.9021C7.87294 20.5844 8.08664 20.2638 8.29472 19.9433L3.70009 14.1367Z" fill="white"/>
<path d="M9.68737 13.0556C9.37526 12.3723 8.97033 11.7284 8.58511 11.0788C8.16895 10.3787 7.72468 9.69258 7.29446 9.00086C6.87549 8.32601 6.45653 7.65116 6.03756 6.97631C5.61297 6.29583 5.18836 5.61536 4.76377 4.93207C4.41791 4.37251 4.08047 3.81013 3.73461 3.25056C3.34095 2.61508 2.94448 1.98241 2.54801 1.34973C2.29775 0.950447 2.05032 0.55116 1.79444 0.140625C1.75508 0.16312 1.73821 0.168744 1.72696 0.182804C1.34455 0.669259 1.0324 1.19789 0.782139 1.76308C0.523446 2.34514 0.312555 2.94688 0.219763 3.57955C0.138219 4.13349 0.0510586 4.69025 0.017316 5.24981C-0.0220503 5.85999 0.00325252 6.47579 0.11854 7.08035C0.211332 7.55555 0.28725 8.03638 0.396913 8.50878C0.464398 8.80403 0.557219 9.09365 0.672506 9.37484C0.894644 9.92034 1.11957 10.4658 1.38389 10.9917C1.7185 11.6553 2.18246 12.2345 2.64923 12.8138C3.00353 13.2524 3.3522 13.6967 3.70087 14.1382L8.2674 19.9925C8.68355 19.3514 9.10812 18.654 9.43148 17.9567C9.71548 17.3465 9.94044 16.7195 10.067 16.0502C10.2638 15.0014 10.1204 14.0004 9.68737 13.0556Z" fill="white"/>
<path d="M20.9744 4.76895C20.9547 4.37247 20.9013 4.02661 20.831 3.63014C20.8198 3.57109 20.8057 3.51204 20.7945 3.45018C20.7607 3.25053 20.6961 2.99746 20.6398 2.80626C20.4289 2.1061 20.159 1.42844 19.7737 0.801386C19.6107 0.53707 19.4251 0.284 19.2339 0C18.8459 0.618614 18.4831 1.18661 18.126 1.76024C17.6902 2.4604 17.2627 3.16618 16.8297 3.86915C16.4839 4.42871 16.1352 4.98827 15.7893 5.54784C15.3732 6.21988 14.957 6.89192 14.538 7.56114C14.15 8.18257 13.7451 8.79556 13.3711 9.42542L16.3236 15.4372C16.3123 15.3754 16.3236 15.3135 16.3798 15.246C16.6104 14.9676 16.8241 14.678 17.0462 14.394C17.6283 13.6545 18.2132 12.915 18.7952 12.1754C19.262 11.5793 19.6528 10.9326 19.9537 10.2409C20.1702 9.74316 20.3839 9.23702 20.5302 8.71402C20.6904 8.1432 20.7692 7.5499 20.8845 6.96503C21.0279 6.23956 21.011 5.50285 20.9744 4.76895Z" fill="white"/>
<g opacity="0.55" filter="url(#filter0_d_1205_866)">
<path d="M16.289 15.3937L16.8654 14.6345L13.373 9.42969L16.289 15.3937Z" fill="white"/>
</g>
<path d="M17.2495 17.4118C17.1398 17.184 17.0555 16.945 16.9458 16.7172C16.7546 16.318 16.5549 15.9271 16.3581 15.5306C16.3441 15.4997 16.3328 15.4716 16.3272 15.4435L13.3747 9.43166C13.7487 8.8018 14.1536 8.19162 14.5416 7.56738C14.1171 8.24786 13.67 8.91427 13.2679 9.60881C12.7983 10.4214 12.354 11.2481 11.9182 12.0776C11.4627 12.9465 11.1168 13.8576 10.9228 14.8277C10.7034 15.9327 10.875 16.9703 11.4205 17.9263C11.8957 18.7559 12.4468 19.5404 12.9698 20.3418C13.431 21.0475 13.9005 21.7449 14.3645 22.445C14.7047 22.9596 15.0478 23.477 15.3937 24C15.5399 23.9128 15.6776 23.8397 15.8042 23.7526C15.9476 23.657 16.091 23.5557 16.2231 23.4433C17.3085 22.5181 17.9749 21.385 18.0143 19.9228C18.0312 19.2507 17.8428 18.6378 17.5841 18.0248C17.4772 17.8195 17.3507 17.6199 17.2495 17.4118Z" fill="white"/>
<path opacity="0.3" d="M8.24647 19.9547L4.69506 15.4473L4.36328 16.1277L8.24647 19.9547Z" fill="white"/>
<defs>
<filter id="filter0_d_1205_866" x="7.42386" y="9.42969" width="15.3906" height="17.8622" filterUnits="userSpaceOnUse" color-interpolation-filters="sRGB">
<feFlood flood-opacity="0" result="BackgroundImageFix"/>
<feColorMatrix in="SourceAlpha" type="matrix" values="0 0 0 0 0 0 0 0 0 0 0 0 0 0 0 0 0 0 127 0" result="hardAlpha"/>
<feOffset dy="5.94919"/>
<feGaussianBlur stdDeviation="2.97459"/>
<feComposite in2="hardAlpha" operator="out"/>
<feColorMatrix type="matrix" values="0 0 0 0 0 0 0 0 0 0 0 0 0 0 0 0 0 0 0.25 0"/>
<feBlend mode="normal" in2="BackgroundImageFix" result="effect1_dropShadow_1205_866"/>
<feBlend mode="normal" in="SourceGraphic" in2="effect1_dropShadow_1205_866" result="shape"/>
</filter>
</defs>
</svg>
