<svg width="64" height="73" viewBox="0 0 64 73" fill="none" xmlns="http://www.w3.org/2000/svg">
<path d="M54.5506 5.28857C53.241 7.39743 51.9523 9.51914 50.6491 11.6319C49.6095 13.3175 48.5625 14.9987 47.518 16.6809C46.2641 18.6998 45.0129 20.72 43.7543 22.7353C42.5868 24.6039 41.3697 26.443 40.2451 28.3362L49.13 46.411C49.0934 46.2227 49.1288 46.0395 49.2972 45.836C49.9895 45.0015 50.633 44.1273 51.304 43.2751C53.0565 41.0489 54.8181 38.8298 56.5681 36.6015C57.9747 34.8103 59.1451 32.8681 60.0552 30.786C60.7095 29.2889 61.3494 27.7678 61.7873 26.1991C62.2666 24.4808 62.5068 22.6957 62.8499 20.9394C63.2776 18.7501 63.2276 16.5332 63.1157 14.3284C63.0549 13.1325 62.8927 12.0964 62.6848 10.9079C62.6533 10.7273 62.6065 10.5488 62.5764 10.3678C62.4767 9.77168 62.2833 9.00866 62.1099 8.4352C61.4725 6.32956 60.6632 4.28986 59.5041 2.40938C59.0124 1.61163 58.4591 0.851846 57.8833 0C56.7127 1.85576 55.6211 3.56554 54.5506 5.28857Z" fill="url(#paint0_linear_174_24)"/>
<g opacity="0.550003">
<path d="M49.0054 46.3447L50.7404 44.0514L40.2295 28.3824L49.0054 46.3447Z" fill="black"/>
</g>
<path d="M49.1514 46.0685C49.1929 46.0146 49.2414 45.9602 49.3143 45.9037C49.2418 45.9602 49.1918 46.0146 49.1514 46.0685Z" fill="url(#paint1_linear_174_24)"/>
<path d="M39.9095 28.9251C38.4864 31.3679 37.1462 33.8605 35.8286 36.3619C34.4487 38.9815 33.4037 41.7182 32.82 44.6439C32.156 47.9704 32.673 51.094 34.3296 53.9777C35.7646 56.4753 37.4352 58.8399 39.0204 61.2513C40.415 63.3723 41.8363 65.4756 43.2439 67.5882C44.2777 69.1398 45.3084 70.6934 46.3569 72.271C46.7971 72.0091 47.213 71.7848 47.6034 71.5231C48.0383 71.2316 48.4699 70.9289 48.8688 70.5912C52.1542 67.8084 54.1723 64.389 54.2856 59.9896C54.3377 57.9649 53.7653 56.1161 52.9845 54.2735C52.6485 53.6517 52.2669 53.0533 51.9558 52.4199C51.6202 51.7366 51.3651 51.0147 51.0352 50.3288C50.4585 49.1303 49.8491 47.9473 49.2586 46.7554C49.2131 46.6639 49.1857 46.5762 49.1688 46.4895L40.2332 28.3869C41.3319 26.5451 42.5182 24.7545 43.6614 22.9382C42.4065 24.9317 41.0942 26.8913 39.9095 28.9251Z" fill="url(#paint2_linear_174_24)"/>
<path d="M14.0175 46.01C14.2149 46.2629 14.2423 46.5091 14.0922 46.7973C13.7569 47.4406 13.4277 48.0876 13.1104 48.7402C12.2719 50.4652 11.4712 52.2099 10.597 53.9159C9.90597 55.265 9.34577 56.6727 9.18009 58.1635C8.94839 60.2454 9.08073 62.3381 9.85614 64.3195C11.1507 67.6283 13.2569 70.2542 16.3419 72.0273C16.9776 72.393 16.9657 72.3836 17.3776 71.7474C19.2841 68.8052 21.1881 65.8611 23.1126 62.931C23.7463 61.9661 24.3824 61.0028 25.0042 60.0308L11.2698 42.472C12.1853 43.6517 13.0987 44.833 14.0175 46.01Z" fill="url(#paint3_linear_174_24)"/>
<path d="M5.18561 0.468473C4.03946 1.93218 3.10201 3.52345 2.3534 5.22362C1.58012 6.9803 0.945079 8.78777 0.662343 10.6933C0.4143 12.3637 0.159641 14.04 0.0521621 15.7229C-0.0649746 17.5623 0.00602079 19.4107 0.358682 21.2341C0.636055 22.6693 0.866575 24.115 1.19116 25.5393C1.39288 26.4252 1.67598 27.3024 2.01988 28.1434C2.68997 29.7831 3.36275 31.4277 4.15551 33.0091C5.15789 35.0094 6.55334 36.7541 7.95304 38.4926C9.01731 39.8145 10.0671 41.1481 11.1138 42.4841L24.8248 60.1116C26.0701 58.1828 27.3464 56.0768 28.317 53.9837C29.1697 52.1453 29.8444 50.2576 30.2237 48.2444C30.8165 45.0956 30.38 42.0815 29.0833 39.2323C28.146 37.1726 26.9301 35.2353 25.7725 33.2826C24.521 31.1717 23.1919 29.1074 21.8984 27.0217C20.6385 24.9896 19.3822 22.9557 18.1219 20.9239C16.8494 18.8723 15.5688 16.8257 14.3019 14.7705C13.2648 13.0883 12.25 11.3923 11.2129 9.70999C10.0336 7.79674 8.84066 5.89189 7.65356 3.98344C6.90564 2.78111 6.15757 1.57895 5.38841 0.342529C5.27413 0.412134 5.21619 0.429365 5.18561 0.468473Z" fill="url(#paint4_linear_174_24)"/>
<g opacity="0.300003">
<path d="M24.8041 60.0794L14.1186 46.5026L13.1221 48.553L24.8041 60.0794Z" fill="black"/>
</g>
<defs>
<linearGradient id="paint0_linear_174_24" x1="43.44" y1="40.6514" x2="66.6025" y2="3.13729" gradientUnits="userSpaceOnUse">
<stop stop-color="#1085E2"/>
<stop offset="1" stop-color="#01C5F9"/>
</linearGradient>
<linearGradient id="paint1_linear_174_24" x1="38.7328" y1="33.6428" x2="49.8766" y2="66.6963" gradientUnits="userSpaceOnUse">
<stop stop-color="#05369C"/>
<stop offset="1" stop-color="#229AF1"/>
</linearGradient>
<linearGradient id="paint2_linear_174_24" x1="37.3092" y1="35.1575" x2="53.8867" y2="66.2555" gradientUnits="userSpaceOnUse">
<stop stop-color="#05369C"/>
<stop offset="1" stop-color="#229AF1"/>
</linearGradient>
<linearGradient id="paint3_linear_174_24" x1="19.243" y1="49.0608" x2="8.93058" y2="68.9919" gradientUnits="userSpaceOnUse">
<stop stop-color="#05369C"/>
<stop offset="1" stop-color="#229AF1"/>
</linearGradient>
<linearGradient id="paint4_linear_174_24" x1="-5.19652" y1="3.89311" x2="34.683" y2="55.842" gradientUnits="userSpaceOnUse">
<stop stop-color="#1085E2"/>
<stop offset="1" stop-color="#01C5F9"/>
</linearGradient>
</defs>
</svg>
