<svg width="24" height="24" viewBox="0 0 24 24" fill="none" xmlns="http://www.w3.org/2000/svg">
<path d="M17.35 9.33333V9.48333H17.5H22.1667C22.7255 9.48333 23.1833 9.94118 23.1833 10.5V23.1833H14.15V17.5V17.35H14H9.33333H9.18333V17.5V23.1833H0.15V10.5C0.15 9.94118 0.607843 9.48333 1.16667 9.48333H5.83333H5.98333V9.33333V7.10156L11.139 5.03927L11.2333 5.00155V4.9V0.15H15.0167V2.18333H12.25H12.1V2.33333V4.9V5.00155L12.1943 5.03927L17.35 7.10156V9.33333ZM7 21.15H7.15V21V17.5V17.35H7H2.33333H2.18333V17.5V21V21.15H2.33333H7ZM7 15.3167H7.15V15.1667V11.6667V11.5167H7H2.33333H2.18333V11.6667V15.1667V15.3167H2.33333H7ZM14 15.3167H14.15V15.1667V11.6667V11.5167H14H9.33333H9.18333V11.6667V15.1667V15.3167H9.33333H14ZM21 21.15H21.15V21V17.5V17.35H21H16.3333H16.1833V17.5V21V21.15H16.3333H21ZM21 15.3167H21.15V15.1667V11.6667V11.5167H21H16.3333H16.1833V11.6667V15.1667V15.3167H16.3333H21ZM12.9833 8.16667C12.9833 7.44216 12.3912 6.85 11.6667 6.85C10.9422 6.85 10.35 7.44216 10.35 8.16667C10.35 8.89118 10.9422 9.48333 11.6667 9.48333C12.3912 9.48333 12.9833 8.89118 12.9833 8.16667Z" fill="#1C023B" stroke="#EDE8F3" stroke-width="0.3"/>
</svg>
