<svg width="19" height="21" viewBox="0 0 19 21" fill="none" xmlns="http://www.w3.org/2000/svg">
<path d="M17.35 4.17604V9.76667H16.4833V4.66667V4.42345L16.266 4.53263L13.8043 5.7693L13.6987 5.82234L13.7256 5.93742C13.8049 6.27721 13.85 6.62742 13.85 7C13.85 9.49549 11.8288 11.5167 9.33333 11.5167C6.83784 11.5167 4.81667 9.49549 4.81667 7C4.81667 6.62742 4.86179 6.27721 4.94108 5.93742L4.96794 5.82227L4.86225 5.76926L1.50165 4.08355L9.33333 0.167705L17.35 4.17604ZM7.06708 6.86584L6.85 6.7573V7C6.85 8.36618 7.96716 9.48333 9.33333 9.48333C10.6995 9.48333 11.8167 8.36618 11.8167 7V6.7573L11.5996 6.86584L9.33333 7.99896L7.06708 6.86584ZM12.6099 4.12356L12.8716 3.9898L12.6098 3.85636L9.58811 2.31636L9.52002 2.28165L9.45193 2.31634L6.31359 3.91467L6.05073 4.04854L6.31376 4.18208L9.3471 5.72208L9.41523 5.75668L9.48327 5.72189L12.6099 4.12356ZM2.06667 18.7833V18.9333H2.21667H16.45H16.6V18.7833V17.5C16.6 17.3495 16.5113 17.2057 16.3976 17.0798C16.2796 16.9491 16.1124 16.8135 15.9086 16.6774C15.5001 16.4048 14.9247 16.1172 14.245 15.855C12.8857 15.3308 11.0881 14.9 9.33333 14.9C7.56121 14.9 5.76358 15.3307 4.40837 15.8551C3.73084 16.1173 3.15857 16.4049 2.75277 16.6777C2.55031 16.8138 2.3843 16.9495 2.26718 17.0803C2.15426 17.2063 2.06667 17.35 2.06667 17.5V18.7833ZM9.33333 12.9833C10.8722 12.9833 13.1866 13.3678 15.1124 14.1378C16.0752 14.5228 16.9315 15.0005 17.5446 15.5669C18.1567 16.1323 18.5167 16.7762 18.5167 17.5V20.85H0.15V17.5C0.15 16.7762 0.510016 16.1323 1.12207 15.5669C1.73521 15.0005 2.59144 14.5228 3.55423 14.1378C5.48005 13.3678 7.79444 12.9833 9.33333 12.9833Z" fill="#1C023B" stroke="#EDE8F3" stroke-width="0.3"/>
</svg>
